<svg width="180" height="52" viewBox="0 0 180 52" fill="none" xmlns="http://www.w3.org/2000/svg">
<path d="M179 46.0031C179 48.7743 176.709 51.0189 173.874 51.0189H6.13243C3.2995 51.0189 1 48.7743 1 46.0031V6.00357C1 3.23374 3.2995 0.981201 6.13243 0.981201H173.873C176.709 0.981201 178.999 3.23374 178.999 6.00357L179 46.0031Z" fill="black"/>
<path d="M173.333 1.04162C176.42 1.04162 178.932 3.4905 178.932 6.5V45.5C178.932 48.5095 176.42 50.9584 173.333 50.9584H6.66667C3.58 50.9584 1.06833 48.5095 1.06833 45.5V6.5C1.06833 3.4905 3.58 1.04162 6.66667 1.04162H173.333ZM173.333 2.74817e-06H6.66667C3.00167 2.74817e-06 0 2.92663 0 6.5V45.5C0 49.0734 3.00167 52 6.66667 52H173.333C176.998 52 180 49.0734 180 45.5V6.5C180 2.92663 176.998 2.74817e-06 173.333 2.74817e-06Z" fill="#A6A6A6"/>
<path d="M40.1705 25.7191C40.1318 21.5292 43.6891 19.4908 43.8518 19.3959C41.8371 16.532 38.7145 16.1407 37.6171 16.1095C34.9945 15.8404 32.4505 17.6396 31.1145 17.6396C29.7518 17.6396 27.6945 16.1355 25.4771 16.1797C22.6238 16.2226 19.9545 17.8333 18.4905 20.3345C15.4691 25.4344 17.7225 32.9289 20.6171 37.0512C22.0651 39.0701 23.7571 41.3243 25.9718 41.245C28.1385 41.1579 28.9478 39.8982 31.5625 39.8982C34.1531 39.8982 34.9131 41.245 37.1718 41.1943C39.4971 41.1579 40.9611 39.1663 42.3585 37.1292C44.0318 34.8152 44.7038 32.5363 44.7305 32.4193C44.6758 32.4011 40.2145 30.741 40.1705 25.7191Z" fill="white"/>
<path d="M35.9038 13.3977C37.0691 11.9768 37.8665 10.0437 37.6451 8.08203C35.9585 8.15483 33.8491 9.21953 32.6345 10.6092C31.5598 11.8338 30.5998 13.841 30.8478 15.7286C32.7425 15.8664 34.6878 14.7965 35.9038 13.3977Z" fill="white"/>
<path d="M65.4002 13.0116C65.4002 14.5417 64.9295 15.6935 63.9895 16.467C63.1189 17.1807 61.8815 17.5382 60.2789 17.5382C59.4842 17.5382 58.8042 17.5044 58.2349 17.4368V9.07646C58.9775 8.95946 59.7775 8.89966 60.6415 8.89966C62.1682 8.89966 63.3189 9.22336 64.0949 9.87076C64.9642 10.6027 65.4002 11.6492 65.4002 13.0116ZM63.9269 13.0493C63.9269 12.0574 63.6575 11.2969 63.1189 10.7665C62.5802 10.2374 61.7935 9.97216 60.7575 9.97216C60.3175 9.97216 59.9429 10.0008 59.6322 10.0606V16.4163C59.8042 16.4423 60.1189 16.454 60.5762 16.454C61.6455 16.454 62.4709 16.1641 63.0522 15.5843C63.6335 15.0045 63.9269 14.1595 63.9269 13.0493Z" fill="white"/>
<path d="M73.2122 14.3479C73.2122 15.2904 72.9362 16.0626 72.3842 16.6684C71.8055 17.2911 71.0388 17.6018 70.0815 17.6018C69.1588 17.6018 68.4242 17.3041 67.8762 16.7061C67.3295 16.1094 67.0562 15.3567 67.0562 14.4493C67.0562 13.5003 67.3375 12.7216 67.9028 12.1171C68.4682 11.5126 69.2282 11.2097 70.1855 11.2097C71.1082 11.2097 71.8495 11.5074 72.4108 12.1041C72.9442 12.6839 73.2122 13.4327 73.2122 14.3479ZM71.7628 14.3921C71.7628 13.8266 71.6375 13.3417 71.3882 12.9374C71.0948 12.4486 70.6775 12.2042 70.1348 12.2042C69.5735 12.2042 69.1468 12.4486 68.8535 12.9374C68.6028 13.3417 68.4788 13.8344 68.4788 14.4168C68.4788 14.9823 68.6042 15.4672 68.8535 15.8715C69.1562 16.3603 69.5775 16.6047 70.1215 16.6047C70.6548 16.6047 71.0735 16.3564 71.3748 15.8585C71.6335 15.4464 71.7628 14.9576 71.7628 14.3921Z" fill="white"/>
<path d="M83.6867 11.3347L81.7201 17.4629H80.4401L79.6254 14.8018C79.4187 14.1375 79.2507 13.4771 79.1201 12.8219H79.0947C78.9734 13.4953 78.8054 14.1544 78.5894 14.8018L77.7241 17.4629H76.4294L74.5801 11.3347H76.0161L76.7267 14.248C76.8987 14.937 77.0401 15.5935 77.1534 16.2149H77.1787C77.2827 15.7027 77.4547 15.0501 77.6974 14.261L78.5894 11.336H79.7281L80.5827 14.1986C80.7894 14.8967 80.9574 15.5688 81.0867 16.2162H81.1254C81.2201 15.5857 81.3627 14.9136 81.5521 14.1986L82.3147 11.336H83.6867V11.3347Z" fill="white"/>
<path d="M90.9307 17.4627H89.5334V13.9527C89.5334 12.8711 89.112 12.3303 88.2667 12.3303C87.852 12.3303 87.5174 12.4785 87.2574 12.7762C87 13.0739 86.8694 13.4249 86.8694 13.8266V17.4614H85.472V13.0856C85.472 12.5474 85.4547 11.9637 85.4214 11.3319H86.6494L86.7147 12.29H86.7534C86.9161 11.9923 87.1587 11.7466 87.4774 11.5503C87.856 11.3215 88.28 11.2058 88.744 11.2058C89.3307 11.2058 89.8187 11.3904 90.2067 11.7609C90.6894 12.2146 90.9307 12.8919 90.9307 13.7915V17.4627Z" fill="white"/>
<path d="M94.7842 17.4628H93.3882V8.52271H94.7842V17.4628Z" fill="white"/>
<path d="M103.011 14.3479C103.011 15.2904 102.735 16.0626 102.183 16.6684C101.604 17.2911 100.836 17.6018 99.8803 17.6018C98.9563 17.6018 98.2216 17.3041 97.675 16.7061C97.1283 16.1094 96.855 15.3567 96.855 14.4493C96.855 13.5003 97.1363 12.7216 97.7017 12.1171C98.267 11.5126 99.027 11.2097 99.983 11.2097C100.907 11.2097 101.647 11.5074 102.21 12.1041C102.743 12.6839 103.011 13.4327 103.011 14.3479ZM101.56 14.3921C101.56 13.8266 101.435 13.3417 101.186 12.9374C100.894 12.4486 100.475 12.2042 99.9336 12.2042C99.371 12.2042 98.9443 12.4486 98.6523 12.9374C98.4016 13.3417 98.2776 13.8344 98.2776 14.4168C98.2776 14.9823 98.403 15.4672 98.6523 15.8715C98.955 16.3603 99.3763 16.6047 99.9203 16.6047C100.454 16.6047 100.871 16.3564 101.172 15.8585C101.432 15.4464 101.56 14.9576 101.56 14.3921Z" fill="white"/>
<path d="M109.774 17.4627H108.519L108.415 16.7568H108.376C107.947 17.3197 107.335 17.6018 106.54 17.6018C105.947 17.6018 105.467 17.4159 105.106 17.0467C104.778 16.7113 104.614 16.294 104.614 15.7987C104.614 15.0499 104.934 14.4792 105.578 14.084C106.22 13.6888 107.124 13.4951 108.288 13.5042V13.3898C108.288 12.5825 107.854 12.1795 106.983 12.1795C106.363 12.1795 105.816 12.3316 105.344 12.6332L105.06 11.7388C105.644 11.3865 106.366 11.2097 107.216 11.2097C108.859 11.2097 109.683 12.0547 109.683 13.7447V16.0015C109.683 16.6138 109.714 17.1013 109.774 17.4627ZM108.323 15.3567V14.4116C106.782 14.3856 106.011 14.7977 106.011 15.6466C106.011 15.9664 106.099 16.2056 106.279 16.3655C106.459 16.5254 106.688 16.6047 106.962 16.6047C107.268 16.6047 107.555 16.5098 107.816 16.3213C108.079 16.1315 108.24 15.891 108.3 15.5959C108.315 15.5296 108.323 15.449 108.323 15.3567Z" fill="white"/>
<path d="M117.713 17.4628H116.473L116.408 16.4787H116.369C115.973 17.2275 115.299 17.6019 114.351 17.6019C113.593 17.6019 112.963 17.312 112.463 16.7322C111.963 16.1524 111.713 15.3997 111.713 14.4754C111.713 13.4835 111.984 12.6801 112.528 12.0665C113.055 11.4945 113.7 11.2085 114.468 11.2085C115.312 11.2085 115.903 11.4854 116.239 12.0405H116.265V8.52271H117.664V15.8118C117.664 16.4085 117.68 16.9584 117.713 17.4628ZM116.265 14.8784V13.8566C116.265 13.6798 116.252 13.5368 116.227 13.4276C116.148 13.1 115.979 12.8244 115.721 12.6021C115.461 12.3798 115.148 12.268 114.787 12.268C114.265 12.268 113.857 12.4695 113.557 12.8738C113.26 13.2781 113.109 13.7942 113.109 14.4247C113.109 15.0305 113.252 15.5219 113.539 15.9002C113.841 16.3032 114.249 16.5047 114.76 16.5047C115.219 16.5047 115.585 16.337 115.864 16.0003C116.133 15.6896 116.265 15.3152 116.265 14.8784Z" fill="white"/>
<path d="M129.664 14.3479C129.664 15.2904 129.388 16.0626 128.836 16.6684C128.258 17.2911 127.492 17.6018 126.534 17.6018C125.612 17.6018 124.878 17.3041 124.328 16.7061C123.782 16.1094 123.508 15.3567 123.508 14.4493C123.508 13.5003 123.79 12.7216 124.355 12.1171C124.92 11.5126 125.68 11.2097 126.639 11.2097C127.56 11.2097 128.303 11.5074 128.863 12.1041C129.396 12.6839 129.664 13.4327 129.664 14.3479ZM128.216 14.3921C128.216 13.8266 128.091 13.3417 127.842 12.9374C127.547 12.4486 127.131 12.2042 126.587 12.2042C126.027 12.2042 125.6 12.4486 125.306 12.9374C125.055 13.3417 124.931 13.8344 124.931 14.4168C124.931 14.9823 125.056 15.4672 125.306 15.8715C125.608 16.3603 126.03 16.6047 126.574 16.6047C127.107 16.6047 127.527 16.3564 127.828 15.8585C128.086 15.4464 128.216 14.9576 128.216 14.3921Z" fill="white"/>
<path d="M137.177 17.4627H135.781V13.9527C135.781 12.8711 135.36 12.3303 134.513 12.3303C134.099 12.3303 133.764 12.4785 133.505 12.7762C133.247 13.0739 133.117 13.4249 133.117 13.8266V17.4614H131.719V13.0856C131.719 12.5474 131.703 11.9637 131.669 11.3319H132.896L132.961 12.29H133C133.164 11.9923 133.407 11.7466 133.724 11.5503C134.104 11.3215 134.527 11.2058 134.992 11.2058C135.577 11.2058 136.065 11.3904 136.453 11.7609C136.937 12.2146 137.177 12.8919 137.177 13.7915V17.4627Z" fill="white"/>
<path d="M146.581 12.355H145.043V15.332C145.043 16.0886 145.316 16.4669 145.857 16.4669C146.108 16.4669 146.316 16.4461 146.48 16.4032L146.516 17.4367C146.24 17.5381 145.877 17.5888 145.431 17.5888C144.879 17.5888 144.449 17.425 144.139 17.0974C143.827 16.7698 143.672 16.2186 143.672 15.4451V12.355H142.753V11.3345H143.672V10.2113L145.041 9.80835V11.3333H146.58V12.355H146.581Z" fill="white"/>
<path d="M153.979 17.4628H152.58V13.9788C152.58 12.8803 152.159 12.3304 151.315 12.3304C150.667 12.3304 150.224 12.6489 149.981 13.2859C149.94 13.4198 149.916 13.5836 149.916 13.776V17.4615H148.52V8.52271H149.916V12.216H149.943C150.383 11.5439 151.013 11.2085 151.831 11.2085C152.409 11.2085 152.888 11.3931 153.268 11.7636C153.741 12.2251 153.979 12.9115 153.979 13.8189V17.4628Z" fill="white"/>
<path d="M161.609 14.1087C161.609 14.3531 161.591 14.5585 161.557 14.7262H157.367C157.385 15.332 157.585 15.7935 157.973 16.1133C158.328 16.3993 158.785 16.5423 159.345 16.5423C159.965 16.5423 160.531 16.4461 161.04 16.2524L161.259 17.1988C160.663 17.451 159.961 17.5771 159.149 17.5771C158.176 17.5771 157.409 17.2976 156.855 16.7386C156.297 16.1796 156.021 15.4295 156.021 14.4883C156.021 13.564 156.279 12.7944 156.797 12.1808C157.339 11.5256 158.071 11.198 158.995 11.198C159.899 11.198 160.585 11.5256 161.049 12.1808C161.424 12.7008 161.609 13.3443 161.609 14.1087ZM160.276 13.7564C160.287 13.3521 160.195 13.0037 160.005 12.7099C159.763 12.3316 159.393 12.1418 158.893 12.1418C158.437 12.1418 158.065 12.3264 157.781 12.6969C157.549 12.992 157.412 13.3443 157.367 13.7564H160.276Z" fill="white"/>
<path d="M71.5269 40.9552H68.4989L66.8402 35.8735H61.0749L59.4949 40.9552H56.5469L62.2589 23.6548H65.7869L71.5269 40.9552ZM66.3402 33.7415L64.8402 29.224C64.6815 28.7625 64.3842 27.6757 63.9455 25.9649H63.8922C63.7175 26.7007 63.4362 27.7875 63.0495 29.224L61.5762 33.7415H66.3402Z" fill="white"/>
<path d="M86.2164 34.5645C86.2164 36.6861 85.6284 38.3631 84.4524 39.5942C83.399 40.6901 82.091 41.2374 80.5297 41.2374C78.8444 41.2374 77.6337 40.6472 76.8964 39.4668H76.843V46.0383H74.0004V32.5872C74.0004 31.2534 73.9644 29.8845 73.895 28.4805H76.395L76.5537 30.4578H76.607C77.555 28.968 78.9937 28.2244 80.9244 28.2244C82.4337 28.2244 83.6937 28.8055 84.7017 29.969C85.7124 31.1338 86.2164 32.6652 86.2164 34.5645ZM83.3204 34.6659C83.3204 33.4517 83.0404 32.4507 82.4777 31.6629C81.863 30.8413 81.0377 30.4305 80.003 30.4305C79.3017 30.4305 78.6644 30.6593 78.095 31.1104C77.5243 31.5654 77.151 32.1595 76.9763 32.8953C76.8883 33.2385 76.8444 33.5193 76.8444 33.7403V35.8203C76.8444 36.7277 77.1297 37.4934 77.7004 38.1187C78.271 38.744 79.0124 39.056 79.9244 39.056C80.995 39.056 81.8284 38.653 82.4244 37.8496C83.0217 37.0449 83.3204 35.9841 83.3204 34.6659Z" fill="white"/>
<path d="M100.932 34.5645C100.932 36.6861 100.344 38.3631 99.1669 39.5942C98.1149 40.6901 96.8068 41.2374 95.2455 41.2374C93.5602 41.2374 92.3495 40.6472 91.6135 39.4668H91.5602V46.0383H88.7175V32.5872C88.7175 31.2534 88.6815 29.8845 88.6122 28.4805H91.1122L91.2709 30.4578H91.3242C92.2708 28.968 93.7095 28.2244 95.6415 28.2244C97.1495 28.2244 98.4095 28.8055 99.4202 29.969C100.427 31.1338 100.932 32.6652 100.932 34.5645ZM98.0362 34.6659C98.0362 33.4517 97.7548 32.4507 97.1922 31.6629C96.5775 30.8413 95.7549 30.4305 94.7189 30.4305C94.0162 30.4305 93.3802 30.6593 92.8095 31.1104C92.2389 31.5654 91.8668 32.1595 91.6922 32.8953C91.6055 33.2385 91.5602 33.5193 91.5602 33.7403V35.8203C91.5602 36.7277 91.8455 37.4934 92.4135 38.1187C92.9842 38.7427 93.7255 39.056 94.6402 39.056C95.7109 39.056 96.5442 38.653 97.1402 37.8496C97.7375 37.0449 98.0362 35.9841 98.0362 34.6659Z" fill="white"/>
<path d="M117.386 36.1037C117.386 37.5753 116.862 38.7726 115.81 39.6969C114.654 40.707 113.044 41.2114 110.976 41.2114C109.067 41.2114 107.536 40.8526 106.378 40.1337L107.036 37.8236C108.284 38.5594 109.654 38.9286 111.146 38.9286C112.216 38.9286 113.05 38.692 113.648 38.2214C114.244 37.7508 114.542 37.119 114.542 36.3312C114.542 35.6292 114.296 35.0377 113.804 34.558C113.315 34.0783 112.498 33.6324 111.356 33.2203C108.25 32.0906 106.698 30.4357 106.698 28.2595C106.698 26.8373 107.242 25.6712 108.331 24.7638C109.416 23.8551 110.864 23.4014 112.675 23.4014C114.29 23.4014 115.631 23.6757 116.702 24.223L115.991 26.4824C114.991 25.952 113.86 25.6868 112.595 25.6868C111.595 25.6868 110.814 25.9273 110.254 26.4057C109.78 26.8334 109.543 27.3547 109.543 27.9722C109.543 28.656 109.814 29.2215 110.358 29.6661C110.831 30.0769 111.691 30.5215 112.939 31.0012C114.466 31.6005 115.587 32.3012 116.308 33.1046C117.027 33.9054 117.386 34.9077 117.386 36.1037Z" fill="white"/>
<path d="M126.784 30.5604H123.651V36.6171C123.651 38.1576 124.203 38.9272 125.31 38.9272C125.818 38.9272 126.239 38.8843 126.572 38.7985L126.651 40.9032C126.091 41.1073 125.354 41.21 124.44 41.21C123.318 41.21 122.44 40.8759 121.807 40.209C121.176 39.5408 120.859 38.4202 120.859 36.8459V30.5578H118.992V28.4778H120.859V26.1937L123.651 25.3721V28.4778H126.784V30.5604Z" fill="white"/>
<path d="M140.922 34.6151C140.922 36.5326 140.359 38.1069 139.236 39.338C138.059 40.6055 136.496 41.2373 134.548 41.2373C132.671 41.2373 131.176 40.6302 130.062 39.416C128.947 38.2018 128.39 36.6691 128.39 34.8218C128.39 32.8887 128.963 31.3053 130.114 30.0742C131.262 28.8418 132.811 28.2256 134.759 28.2256C136.636 28.2256 138.147 28.8327 139.287 30.0482C140.378 31.2273 140.922 32.7496 140.922 34.6151ZM137.972 34.7048C137.972 33.5543 137.72 32.5676 137.21 31.7447C136.614 30.7489 135.762 30.2523 134.658 30.2523C133.515 30.2523 132.647 30.7502 132.051 31.7447C131.54 32.5689 131.288 33.5712 131.288 34.7568C131.288 35.9073 131.54 36.894 132.051 37.7156C132.666 38.7114 133.524 39.208 134.632 39.208C135.718 39.208 136.57 38.701 137.184 37.6896C137.708 36.8511 137.972 35.854 137.972 34.7048Z" fill="white"/>
<path d="M150.162 30.918C149.88 30.8673 149.58 30.8413 149.266 30.8413C148.266 30.8413 147.492 31.2092 146.948 31.9463C146.475 32.5963 146.238 33.4179 146.238 34.4098V40.9553H143.396L143.423 32.4091C143.423 30.9713 143.387 29.6622 143.316 28.4818H145.792L145.896 30.8686H145.975C146.275 30.0483 146.748 29.3879 147.396 28.8926C148.03 28.4467 148.714 28.2244 149.451 28.2244C149.714 28.2244 149.951 28.2426 150.162 28.2751V30.918Z" fill="white"/>
<path d="M162.875 34.1276C162.875 34.6242 162.842 35.0428 162.771 35.3847H154.243C154.276 36.6171 154.688 37.5596 155.48 38.2096C156.199 38.7907 157.128 39.0819 158.27 39.0819C159.532 39.0819 160.684 38.8856 161.72 38.4917L162.166 40.4157C160.955 40.9305 159.526 41.1866 157.876 41.1866C155.892 41.1866 154.335 40.6172 153.202 39.4797C152.071 38.3422 151.504 36.8147 151.504 34.8985C151.504 33.0174 152.031 31.4509 153.086 30.2016C154.19 28.8678 155.682 28.2009 157.559 28.2009C159.403 28.2009 160.799 28.8678 161.747 30.2016C162.498 31.2611 162.875 32.5715 162.875 34.1276ZM160.164 33.4087C160.183 32.5871 159.998 31.8773 159.612 31.278C159.12 30.5071 158.364 30.1223 157.347 30.1223C156.418 30.1223 155.662 30.498 155.084 31.252C154.611 31.8513 154.33 32.5702 154.243 33.4074H160.164V33.4087Z" fill="white"/>
</svg>
