<svg width="14" height="12" viewBox="0 0 14 12" fill="none" xmlns="http://www.w3.org/2000/svg">
<path d="M8.0252 1.0252C9.39082 -0.34043 11.6096 -0.34043 12.9752 1.0252C14.3408 2.39082 14.3408 4.65957 12.9752 6.0252L7.0002 12.0002L1.0252 6.0252C-0.34043 4.65957 -0.34043 2.39082 1.0252 1.0252C2.39082 -0.34043 4.60957 -0.34043 5.9752 1.0252L7.0002 2.0502L8.0252 1.0252ZM7.00024 10.5846L12.269 5.31895C12.7409 4.84707 13.0002 4.20957 13.0002 3.5252C13.0002 2.84082 12.7409 2.20332 12.269 1.73145C11.7971 1.25957 11.169 1.0002 10.5002 1.0002C9.83149 1.0002 9.20337 1.25957 8.73149 1.73145L7.00024 3.4627L5.26899 1.73145C4.79712 1.25957 4.16899 1.0002 3.50024 1.0002C2.83149 1.0002 2.20337 1.25957 1.73149 1.73145C1.25962 2.20332 1.00024 2.84082 1.00024 3.5252C1.00024 4.20957 1.25962 4.84707 1.73149 5.31895L7.00024 10.5846Z" fill="#272727"/>
</svg>
