<svg width="238" height="58" viewBox="0 0 238 58" fill="none" xmlns="http://www.w3.org/2000/svg">
<path d="M16.64 43.904C15.616 41.8987 14.5707 39.7867 13.504 37.568C12.48 35.3067 11.456 33.0667 10.432 30.848C9.45067 28.6293 8.49067 26.496 7.552 24.448C6.656 22.4 5.84533 20.544 5.12 18.88C4.39467 17.1733 3.776 15.7227 3.264 14.528C2.79467 13.3333 2.47467 12.5227 2.304 12.096C1.83467 10.944 1.32267 9.70667 0.768 8.384C0.256 7.01867 0 5.696 0 4.416C0 1.472 1.74933 0 5.248 0C6.61333 0 7.744 0.170667 8.64 0.512001C9.57867 0.810669 10.1547 1.024 10.368 1.152C11.0933 3.24267 11.968 5.632 12.992 8.32C14.016 11.008 15.0827 13.76 16.192 16.576C17.3013 19.3493 18.3893 22.0587 19.456 24.704C20.5227 27.3493 21.4827 29.6533 22.336 31.616C23.7867 28.16 25.4293 24.1067 27.264 19.456C29.0987 14.8053 30.976 9.92 32.896 4.8C33.4933 3.17867 34.24 1.984 35.136 1.216C36.032 0.405333 37.44 0 39.36 0C40.2133 0 41.0027 0.106667 41.728 0.32C42.4533 0.533333 43.0933 0.768 43.648 1.024C44.2027 1.28 44.6293 1.536 44.928 1.792C45.2693 2.048 45.4827 2.19734 45.568 2.24C45.312 2.88 44.8213 4.096 44.096 5.888C43.4133 7.63733 42.56 9.728 41.536 12.16C40.5547 14.5493 39.4453 17.1733 38.208 20.032C37.0133 22.8907 35.7973 25.7707 34.56 28.672C33.3227 31.5307 32.1067 34.2827 30.912 36.928C29.7173 39.5733 28.6507 41.8987 27.712 43.904H16.64Z" fill="#4AA675"/>
<path d="M45.1075 27.584C45.1075 25.1093 45.5768 22.8267 46.5155 20.736C47.4542 18.6453 48.7342 16.832 50.3555 15.296C52.0195 13.76 53.9395 12.5653 56.1155 11.712C58.2915 10.816 60.6382 10.368 63.1555 10.368C65.6302 10.368 67.9555 10.816 70.1315 11.712C72.3502 12.5653 74.2702 13.76 75.8915 15.296C77.5555 16.832 78.8568 18.6453 79.7955 20.736C80.7342 22.8267 81.2035 25.1093 81.2035 27.584C81.2035 30.0587 80.7342 32.3413 79.7955 34.432C78.8568 36.5227 77.5555 38.336 75.8915 39.872C74.2702 41.408 72.3502 42.624 70.1315 43.52C67.9555 44.3733 65.6302 44.8 63.1555 44.8C60.6382 44.8 58.2915 44.3733 56.1155 43.52C53.9395 42.624 52.0195 41.408 50.3555 39.872C48.7342 38.336 47.4542 36.5227 46.5155 34.432C45.5768 32.3413 45.1075 30.0587 45.1075 27.584ZM63.1555 35.584C64.2222 35.584 65.2035 35.392 66.0995 35.008C67.0382 34.5813 67.8488 34.0267 68.5315 33.344C69.2142 32.6187 69.7262 31.7653 70.0675 30.784C70.4515 29.8027 70.6435 28.736 70.6435 27.584C70.6435 26.432 70.4515 25.3653 70.0675 24.384C69.7262 23.4027 69.2142 22.5707 68.5315 21.888C67.8488 21.1627 67.0382 20.608 66.0995 20.224C65.2035 19.7973 64.2222 19.584 63.1555 19.584C62.0462 19.584 61.0435 19.7973 60.1475 20.224C59.2515 20.608 58.4622 21.1627 57.7795 21.888C57.0968 22.5707 56.5635 23.4027 56.1795 24.384C55.8382 25.3653 55.6675 26.432 55.6675 27.584C55.6675 28.736 55.8382 29.8027 56.1795 30.784C56.5635 31.7653 57.0968 32.6187 57.7795 33.344C58.4622 34.0267 59.2515 34.5813 60.1475 35.008C61.0435 35.392 62.0462 35.584 63.1555 35.584Z" fill="#4AA675"/>
<path d="M90.4135 47.424C90.5842 47.5093 90.9468 47.6373 91.5015 47.808C92.0988 48.0213 92.8242 48.2133 93.6775 48.384C94.5308 48.5973 95.4908 48.768 96.5575 48.896C97.6668 49.0667 98.7975 49.152 99.9495 49.152C103.235 49.152 105.603 48.448 107.054 47.04C108.504 45.632 109.229 43.3067 109.229 40.064C108.419 41.0453 107.182 41.8347 105.518 42.432C103.854 42.9867 102.19 43.264 100.526 43.264C98.5628 43.264 96.7282 43.0293 95.0215 42.56C93.3575 42.048 91.8855 41.28 90.6055 40.256C89.3682 39.232 88.3868 37.952 87.6615 36.416C86.9788 34.8373 86.6375 32.9813 86.6375 30.848V15.808C86.6375 14.144 87.1282 12.9707 88.1095 12.288C89.0908 11.6053 90.3922 11.264 92.0135 11.264C93.1655 11.264 94.2108 11.4133 95.1495 11.712C96.0882 11.968 96.6855 12.1387 96.9415 12.224V28.736C96.9415 30.784 97.4108 32.256 98.3495 33.152C99.3308 34.048 100.846 34.496 102.894 34.496C104.813 34.496 106.307 33.9413 107.373 32.832C108.44 31.7227 108.974 30.016 108.974 27.712V15.808C108.974 14.144 109.464 12.9707 110.446 12.288C111.427 11.6053 112.728 11.264 114.35 11.264C115.502 11.264 116.547 11.4133 117.485 11.712C118.424 11.968 119.022 12.1387 119.278 12.224V39.36C119.278 42.6027 118.851 45.3547 117.998 47.616C117.144 49.92 115.928 51.776 114.35 53.184C112.771 54.6347 110.894 55.68 108.717 56.32C106.541 57.0027 104.109 57.344 101.422 57.344C99.5442 57.344 97.8162 57.2373 96.2375 57.024C94.6588 56.8107 93.2722 56.5547 92.0775 56.256C90.8828 56 89.9228 55.744 89.1975 55.488C88.4722 55.232 88.0455 55.0613 87.9175 54.976L90.4135 47.424Z" fill="#4AA675"/>
<path d="M155.595 43.712C155.339 43.7973 154.763 43.8827 153.867 43.968C152.971 44.096 151.841 44.224 150.475 44.352C149.153 44.48 147.617 44.5867 145.867 44.672C144.161 44.7573 142.347 44.8 140.427 44.8C137.185 44.8 134.497 44.5013 132.363 43.904C130.23 43.3493 128.523 42.5813 127.243 41.6C125.964 40.6187 125.068 39.488 124.556 38.208C124.044 36.8853 123.787 35.4987 123.787 34.048C123.787 30.1227 125.046 27.328 127.563 25.664C130.081 23.9573 134.07 23.104 139.531 23.104C140.897 23.104 142.027 23.1253 142.923 23.168C143.862 23.2107 144.63 23.2747 145.227 23.36C145.227 21.8667 144.609 20.6933 143.371 19.84C142.177 18.9867 140.171 18.56 137.355 18.56C136.033 18.56 134.859 18.6453 133.835 18.816C132.854 18.944 132.001 19.1147 131.275 19.328C130.593 19.5413 130.038 19.7547 129.611 19.968C129.185 20.1813 128.886 20.352 128.715 20.48C128.63 20.3947 128.459 20.224 128.203 19.968C127.947 19.712 127.691 19.392 127.435 19.008C127.179 18.5813 126.945 18.112 126.731 17.6C126.518 17.088 126.411 16.5333 126.411 15.936C126.411 12.224 130.209 10.368 137.803 10.368C140.278 10.368 142.604 10.6027 144.779 11.072C146.955 11.4987 148.833 12.2667 150.411 13.376C152.033 14.4427 153.292 15.872 154.188 17.664C155.126 19.456 155.595 21.696 155.595 24.384V43.712ZM145.291 30.336C144.907 30.2507 144.331 30.1867 143.563 30.144C142.838 30.0587 141.729 30.016 140.235 30.016C138.955 30.016 137.91 30.1227 137.099 30.336C136.289 30.5493 135.649 30.848 135.179 31.232C134.753 31.5733 134.454 31.9787 134.283 32.448C134.113 32.9173 134.027 33.408 134.027 33.92C134.027 34.304 134.091 34.7093 134.219 35.136C134.348 35.5627 134.625 35.9467 135.051 36.288C135.478 36.6293 136.118 36.928 136.971 37.184C137.825 37.3973 138.955 37.504 140.363 37.504C141.473 37.504 142.497 37.4827 143.435 37.44C144.374 37.3547 144.993 37.2693 145.291 37.184V30.336Z" fill="#4AA675"/>
<path d="M166.989 47.104C167.117 47.1893 167.459 47.3387 168.013 47.552C168.568 47.7653 169.272 47.9787 170.125 48.192C171.021 48.448 172.046 48.6613 173.197 48.832C174.392 49.0453 175.672 49.152 177.037 49.152C178.403 49.152 179.661 49.0027 180.813 48.704C182.008 48.4053 183.011 47.8933 183.821 47.168C184.675 46.4853 185.336 45.5893 185.805 44.48C186.275 43.4133 186.509 42.0693 186.509 40.448V39.744C186.296 39.9573 185.933 40.256 185.421 40.64C184.952 41.024 184.312 41.408 183.501 41.792C182.733 42.176 181.816 42.5173 180.749 42.816C179.683 43.1147 178.488 43.264 177.165 43.264C174.861 43.264 172.728 42.9227 170.765 42.24C168.845 41.5147 167.182 40.4693 165.773 39.104C164.365 37.7387 163.277 36.0747 162.509 34.112C161.741 32.1067 161.357 29.8453 161.357 27.328C161.357 24.8107 161.805 22.528 162.701 20.48C163.597 18.3893 164.835 16.5973 166.413 15.104C167.992 13.6107 169.869 12.4587 172.045 11.648C174.264 10.7947 176.696 10.368 179.341 10.368C182.285 10.368 184.995 10.9227 187.469 12.032C189.987 13.1413 192.056 14.7627 193.677 16.896C194.701 18.2613 195.469 19.8613 195.981 21.696C196.536 23.5307 196.813 25.856 196.813 28.672V38.208C196.813 41.536 196.344 44.3947 195.405 46.784C194.467 49.216 193.165 51.2 191.501 52.736C189.837 54.3147 187.854 55.4667 185.549 56.192C183.288 56.96 180.813 57.344 178.125 57.344C176.248 57.344 174.52 57.216 172.941 56.96C171.363 56.7467 169.955 56.4693 168.717 56.128C167.523 55.8293 166.52 55.5093 165.709 55.168C164.941 54.8693 164.429 54.6347 164.173 54.464L166.989 47.104ZM171.917 27.328C171.917 29.76 172.6 31.5733 173.965 32.768C175.331 33.9627 177.08 34.56 179.214 34.56C181.304 34.56 183.032 33.8987 184.397 32.576C185.805 31.2533 186.509 29.504 186.509 27.328C186.509 25.152 185.805 23.3813 184.397 22.016C183.032 20.608 181.304 19.904 179.214 19.904C178.147 19.904 177.165 20.096 176.27 20.48C175.374 20.864 174.605 21.3973 173.965 22.08C173.326 22.7627 172.813 23.552 172.429 24.448C172.088 25.344 171.917 26.304 171.917 27.328Z" fill="#4AA675"/>
<path d="M201.795 27.584C201.795 25.1093 202.264 22.8267 203.203 20.736C204.142 18.6453 205.422 16.832 207.043 15.296C208.707 13.76 210.627 12.5653 212.803 11.712C214.979 10.816 217.326 10.368 219.843 10.368C222.318 10.368 224.643 10.816 226.819 11.712C229.038 12.5653 230.958 13.76 232.579 15.296C234.243 16.832 235.544 18.6453 236.483 20.736C237.422 22.8267 237.891 25.1093 237.891 27.584C237.891 30.0587 237.422 32.3413 236.483 34.432C235.544 36.5227 234.243 38.336 232.579 39.872C230.958 41.408 229.038 42.624 226.819 43.52C224.643 44.3733 222.318 44.8 219.843 44.8C217.326 44.8 214.979 44.3733 212.803 43.52C210.627 42.624 208.707 41.408 207.043 39.872C205.422 38.336 204.142 36.5227 203.203 34.432C202.264 32.3413 201.795 30.0587 201.795 27.584ZM219.843 35.584C220.91 35.584 221.891 35.392 222.787 35.008C223.726 34.5813 224.536 34.0267 225.219 33.344C225.902 32.6187 226.414 31.7653 226.755 30.784C227.139 29.8027 227.331 28.736 227.331 27.584C227.331 26.432 227.139 25.3653 226.755 24.384C226.414 23.4027 225.902 22.5707 225.219 21.888C224.536 21.1627 223.726 20.608 222.787 20.224C221.891 19.7973 220.91 19.584 219.843 19.584C218.734 19.584 217.731 19.7973 216.835 20.224C215.939 20.608 215.15 21.1627 214.467 21.888C213.784 22.5707 213.251 23.4027 212.867 24.384C212.526 25.3653 212.355 26.432 212.355 27.584C212.355 28.736 212.526 29.8027 212.867 30.784C213.251 31.7653 213.784 32.6187 214.467 33.344C215.15 34.0267 215.939 34.5813 216.835 35.008C217.731 35.392 218.734 35.584 219.843 35.584Z" fill="#4AA675"/>
</svg>
