<svg width="16" height="16" viewBox="0 0 16 16" fill="none" xmlns="http://www.w3.org/2000/svg">
<path d="M6 11.5C6 12.3284 5.32844 13 4.5 13C3.67156 13 3 12.3284 3 11.5C3 10.6716 3.67156 10 4.5 10C5.32844 10 6 10.6716 6 11.5Z" fill="#323130"/>
<path d="M10.5 10C9.67156 10 9 10.6716 9 11.5C9 12.3284 9.67156 13 10.5 13C11.3284 13 12 12.3284 12 11.5C12 10.6716 11.3284 10 10.5 10Z" fill="#323130"/>
<path d="M4 2H1V3H3V9H12V8H4V2Z" fill="#323130"/>
<path d="M5 7H13V6H5V7Z" fill="#323130"/>
<path d="M5 4V5H14V4H5Z" fill="#323130"/>
</svg>
