<svg width="180" height="52" viewBox="0 0 180 52" fill="none" xmlns="http://www.w3.org/2000/svg">
<path d="M173.333 52H6.66667C3.00167 52 0 49.0734 0 45.5V6.5C0 2.92663 3.00167 2.74817e-06 6.66667 2.74817e-06H173.333C176.998 2.74817e-06 180 2.92663 180 6.5V45.5C180 49.0734 176.998 52 173.333 52Z" fill="black"/>
<path d="M173.333 1.04162C176.42 1.04162 178.932 3.4905 178.932 6.5V45.5C178.932 48.5095 176.42 50.9584 173.333 50.9584H6.66667C3.58 50.9584 1.06833 48.5095 1.06833 45.5V6.5C1.06833 3.4905 3.58 1.04162 6.66667 1.04162H173.333ZM173.333 2.74817e-06H6.66667C3.00167 2.74817e-06 0 2.92663 0 6.5V45.5C0 49.0734 3.00167 52 6.66667 52H173.333C176.998 52 180 49.0734 180 45.5V6.5C180 2.92663 176.998 2.74817e-06 173.333 2.74817e-06Z" fill="#A6A6A6"/>
<path d="M13.9134 9.80044C13.5217 10.2002 13.295 10.8226 13.295 11.6286V40.3781C13.295 41.1841 13.5217 41.8064 13.9134 42.2062L14.01 42.2939L30.5334 26.1902V25.8099L14.01 9.7062L13.9134 9.80044Z" fill="url(#paint0_linear_65_485)"/>
<path d="M36.035 31.5608L30.5333 26.1902V25.8099L36.0417 20.4393L36.165 20.5092L42.6883 24.128C44.55 25.155 44.55 26.845 42.6883 27.8785L36.165 31.4909L36.035 31.5608Z" fill="url(#paint1_linear_65_485)"/>
<path d="M36.1649 31.491L30.5332 26.0001L13.9132 42.2062C14.5315 42.84 15.5399 42.9163 16.6865 42.2826L36.1649 31.491Z" fill="url(#paint2_linear_65_485)"/>
<path d="M36.1649 20.5091L16.6865 9.71751C15.5399 9.09025 14.5315 9.16663 13.9132 9.80038L30.5332 26L36.1649 20.5091Z" fill="url(#paint3_linear_65_485)"/>
<path d="M63.2233 13.3169C63.2233 14.4024 62.8899 15.2718 62.2333 15.9202C61.4783 16.6888 60.4949 17.0756 59.2899 17.0756C58.1383 17.0756 57.1549 16.6823 56.3483 15.9072C55.5399 15.1207 55.1366 14.1554 55.1366 13.0001C55.1366 11.8447 55.5399 10.8794 56.3483 10.0994C57.1549 9.31781 58.1383 8.92456 59.2899 8.92456C59.8633 8.92456 60.4099 9.03994 60.9316 9.25444C61.4516 9.47056 61.8749 9.76306 62.1816 10.1238L61.4849 10.8096C60.9499 10.1937 60.2216 9.88981 59.2899 9.88981C58.4499 9.88981 57.7216 10.1758 57.1033 10.7527C56.4916 11.3312 56.1849 12.0803 56.1849 13.0001C56.1849 13.9198 56.4916 14.6754 57.1033 15.2539C57.7216 15.8243 58.4499 16.1168 59.2899 16.1168C60.1816 16.1168 60.9316 15.8243 61.5233 15.2474C61.9133 14.8656 62.1349 14.3391 62.1933 13.6663H59.2899V12.7271H63.1633C63.2099 12.9302 63.2233 13.1268 63.2233 13.3169Z" fill="white" stroke="white" stroke-width="0.16" stroke-miterlimit="10"/>
<path d="M69.3684 10.0604H65.7301V12.5304H69.0101V13.4696H65.7301V15.9396H69.3684V16.8968H64.7001V9.10327H69.3684V10.0604Z" fill="white" stroke="white" stroke-width="0.16" stroke-miterlimit="10"/>
<path d="M73.7049 16.8968H72.6749V10.0604H70.4432V9.10327H75.9382V10.0604H73.7049V16.8968Z" fill="white" stroke="white" stroke-width="0.16" stroke-miterlimit="10"/>
<path d="M79.9149 16.8968V9.10327H80.9433V16.8968H79.9149Z" fill="white" stroke="white" stroke-width="0.16" stroke-miterlimit="10"/>
<path d="M85.5018 16.8968H84.4801V10.0604H82.2401V9.10327H87.7418V10.0604H85.5018V16.8968Z" fill="white" stroke="white" stroke-width="0.16" stroke-miterlimit="10"/>
<path d="M98.145 15.8942C97.3566 16.6823 96.38 17.0756 95.215 17.0756C94.0433 17.0756 93.0666 16.6823 92.2783 15.8942C91.4916 15.1077 91.1 14.1424 91.1 13.0001C91.1 11.8577 91.4916 10.8924 92.2783 10.1059C93.0666 9.31781 94.0433 8.92456 95.215 8.92456C96.3733 8.92456 97.35 9.31781 98.1383 10.1124C98.9317 10.9054 99.3233 11.8642 99.3233 13.0001C99.3233 14.1424 98.9316 15.1077 98.145 15.8942ZM93.04 15.2409C93.6333 15.8243 94.355 16.1168 95.215 16.1168C96.0683 16.1168 96.7966 15.8243 97.3833 15.2409C97.975 14.6576 98.275 13.9084 98.275 13.0001C98.275 12.0917 97.975 11.3426 97.3833 10.7592C96.7966 10.1758 96.0683 9.88331 95.215 9.88331C94.355 9.88331 93.6333 10.1758 93.04 10.7592C92.4483 11.3426 92.1483 12.0917 92.1483 13.0001C92.1483 13.9084 92.4483 14.6576 93.04 15.2409Z" fill="white" stroke="white" stroke-width="0.16" stroke-miterlimit="10"/>
<path d="M100.768 16.8968V9.10327H102.018L105.905 15.1645H105.95L105.905 13.6663V9.10327H106.933V16.8968H105.86L101.79 10.5365H101.745L101.79 12.0413V16.8968H100.768Z" fill="white" stroke="white" stroke-width="0.16" stroke-miterlimit="10"/>
<path d="M90.8469 28.2783C87.7152 28.2783 85.1569 30.602 85.1569 33.8082C85.1569 36.9883 87.7152 39.3364 90.8469 39.3364C93.9852 39.3364 96.5435 36.9883 96.5435 33.8082C96.5435 30.602 93.9852 28.2783 90.8469 28.2783ZM90.8469 37.1589C89.1285 37.1589 87.6502 35.776 87.6502 33.8082C87.6502 31.8143 89.1285 30.4558 90.8469 30.4558C92.5652 30.4558 94.0502 31.8143 94.0502 33.8082C94.0502 35.776 92.5652 37.1589 90.8469 37.1589ZM78.4319 28.2783C75.2935 28.2783 72.7419 30.602 72.7419 33.8082C72.7419 36.9883 75.2935 39.3364 78.4319 39.3364C81.5685 39.3364 84.1219 36.9883 84.1219 33.8082C84.1219 30.602 81.5685 28.2783 78.4319 28.2783ZM78.4319 37.1589C76.7119 37.1589 75.2285 35.776 75.2285 33.8082C75.2285 31.8143 76.7119 30.4558 78.4319 30.4558C80.1502 30.4558 81.6285 31.8143 81.6285 33.8082C81.6285 35.776 80.1502 37.1589 78.4319 37.1589ZM63.6585 29.9732V32.3229H69.4135C69.2452 33.6359 68.7952 34.6012 68.1052 35.2739C67.2652 36.0864 65.9569 36.9883 63.6585 36.9883C60.1169 36.9883 57.3435 34.2014 57.3435 30.7483C57.3435 27.2952 60.1169 24.5083 63.6585 24.5083C65.5735 24.5083 66.9669 25.2379 67.9952 26.1837L69.6935 24.5278C68.2552 23.1888 66.3419 22.1602 63.6585 22.1602C58.8019 22.1602 54.7202 26.013 54.7202 30.7483C54.7202 35.4835 58.8019 39.3364 63.6585 39.3364C66.2835 39.3364 68.2552 38.4979 69.8052 36.9249C71.3935 35.3763 71.8885 33.1988 71.8885 31.4405C71.8885 30.8945 71.8419 30.3924 71.7585 29.9732H63.6585ZM124.069 31.7948C123.6 30.5582 122.155 28.2783 119.212 28.2783C116.295 28.2783 113.867 30.5192 113.867 33.8082C113.867 36.9054 116.27 39.3364 119.492 39.3364C122.097 39.3364 123.6 37.7878 124.219 36.8859L122.285 35.6298C121.64 36.5495 120.762 37.1589 119.492 37.1589C118.23 37.1589 117.325 36.595 116.745 35.4835L124.33 32.4237L124.069 31.7948ZM116.335 33.6359C116.27 31.5039 118.034 30.4119 119.297 30.4119C120.287 30.4119 121.127 30.8945 121.407 31.5852L116.335 33.6359ZM110.17 39H112.664V22.75H110.17V39ZM106.087 29.51H106.004C105.444 28.8633 104.375 28.2783 103.022 28.2783C100.182 28.2783 97.5852 30.7093 97.5852 33.826C97.5852 36.9249 100.182 39.3364 103.022 39.3364C104.375 39.3364 105.444 38.7465 106.004 38.0803H106.087V38.8733C106.087 40.9874 104.929 42.1233 103.06 42.1233C101.537 42.1233 100.592 41.0508 100.202 40.1489L98.0335 41.0313C98.6585 42.497 100.314 44.3008 103.06 44.3008C105.984 44.3008 108.45 42.6238 108.45 38.5434V28.6147H106.087V29.51ZM103.235 37.1589C101.517 37.1589 100.079 35.7565 100.079 33.826C100.079 31.8777 101.517 30.4558 103.235 30.4558C104.929 30.4558 106.264 31.8777 106.264 33.826C106.264 35.7565 104.929 37.1589 103.235 37.1589ZM135.742 22.75H129.779V39H132.265V32.8429H135.742C138.504 32.8429 141.212 30.8945 141.212 27.7957C141.212 24.6984 138.497 22.75 135.742 22.75ZM135.807 30.5825H132.265V25.0104H135.807C137.664 25.0104 138.724 26.5135 138.724 27.7957C138.724 29.0534 137.664 30.5825 135.807 30.5825ZM151.179 28.2474C149.382 28.2474 147.514 29.0209 146.745 30.7353L148.952 31.6372C149.427 30.7353 150.3 30.4428 151.224 30.4428C152.514 30.4428 153.822 31.1984 153.842 32.5325V32.7032C153.392 32.4497 152.429 32.0743 151.244 32.0743C148.867 32.0743 146.445 33.3499 146.445 35.7305C146.445 37.908 148.392 39.3104 150.58 39.3104C152.254 39.3104 153.177 38.5743 153.757 37.7179H153.842V38.974H156.244V32.7405C156.244 29.8594 154.037 28.2474 151.179 28.2474ZM150.879 37.1524C150.065 37.1524 148.932 36.7592 148.932 35.776C148.932 34.5183 150.345 34.0357 151.569 34.0357C152.664 34.0357 153.177 34.2713 153.842 34.5817C153.647 36.0864 152.319 37.1524 150.879 37.1524ZM164.994 28.6033L162.135 35.6477H162.05L159.095 28.6033H156.414L160.854 38.4475L158.32 43.9254H160.919L167.76 28.6033H164.994ZM142.579 39H145.072V22.75H142.579V39Z" fill="white"/>
<defs>
<linearGradient id="paint0_linear_65_485" x1="29.0663" y1="40.6775" x2="7.25617" y2="18.3081" gradientUnits="userSpaceOnUse">
<stop stop-color="#00A0FF"/>
<stop offset="0.0066" stop-color="#00A1FF"/>
<stop offset="0.2601" stop-color="#00BEFF"/>
<stop offset="0.5122" stop-color="#00D2FF"/>
<stop offset="0.7604" stop-color="#00DFFF"/>
<stop offset="1" stop-color="#00E3FF"/>
</linearGradient>
<linearGradient id="paint1_linear_65_485" x1="45.1125" y1="25.9982" x2="12.85" y2="25.9982" gradientUnits="userSpaceOnUse">
<stop stop-color="#FFE000"/>
<stop offset="0.4087" stop-color="#FFBD00"/>
<stop offset="0.7754" stop-color="#FFA500"/>
<stop offset="1" stop-color="#FF9C00"/>
</linearGradient>
<linearGradient id="paint2_linear_65_485" x1="33.1025" y1="23.0152" x2="3.52623" y2="-7.31951" gradientUnits="userSpaceOnUse">
<stop stop-color="#FF3A44"/>
<stop offset="1" stop-color="#C31162"/>
</linearGradient>
<linearGradient id="paint3_linear_65_485" x1="9.72961" y1="51.7709" x2="22.9368" y2="38.2253" gradientUnits="userSpaceOnUse">
<stop stop-color="#32A071"/>
<stop offset="0.0685" stop-color="#2DA771"/>
<stop offset="0.4762" stop-color="#15CF74"/>
<stop offset="0.8009" stop-color="#06E775"/>
<stop offset="1" stop-color="#00F076"/>
</linearGradient>
</defs>
</svg>
