<svg width="153" height="58" viewBox="0 0 153 58" fill="none" xmlns="http://www.w3.org/2000/svg">
<path fill-rule="evenodd" clip-rule="evenodd" d="M36.0816 32.8657C37.3104 30.3506 38 27.5239 38 24.5361C38 14.0427 29.4934 5.53613 19 5.53613C8.50659 5.53613 0 14.0427 0 24.5361C0 35.0295 8.50659 43.5361 19 43.5361C21.5581 43.5361 23.9982 43.0306 26.2257 42.1139C26.1058 41.5784 26.0426 41.0214 26.0426 40.4497C26.0426 36.2612 29.438 32.8657 33.6266 32.8657H36.0816ZM18.2231 30.0556C18.4268 30.1203 18.6305 30.1657 18.8342 30.1916C19.0379 30.2046 19.2415 30.211 19.4452 30.211C19.9544 30.211 20.4446 30.1398 20.9156 29.9973C21.3866 29.8547 21.8258 29.6539 22.2332 29.3948C22.6533 29.1227 23.0224 28.7988 23.3407 28.4231C23.6717 28.0344 23.939 27.6068 24.1427 27.1404L27.9618 31.0467C27.4781 31.7464 26.9179 32.3748 26.2814 32.9319C25.6576 33.489 24.9765 33.9619 24.2382 34.3506C23.5126 34.7393 22.7424 35.0308 21.9276 35.2252C21.1256 35.4325 20.2982 35.5361 19.4452 35.5361C18.0067 35.5361 16.6509 35.264 15.3779 34.7199C14.1176 34.1757 13.01 33.4178 12.0553 32.446C11.1132 31.4743 10.3685 30.3212 9.82111 28.9867C9.2737 27.6392 9 26.1622 9 24.5556C9 22.9101 9.2737 21.4072 9.82111 20.0467C10.3685 18.6863 11.1132 17.5267 12.0553 16.5679C13.01 15.6092 14.1176 14.8642 15.3779 14.333C16.6509 13.8017 18.0067 13.5361 19.4452 13.5361C20.2982 13.5361 21.132 13.6398 21.9467 13.8471C22.7615 14.0544 23.5317 14.3524 24.2573 14.7411C24.9956 15.1298 25.6831 15.6092 26.3196 16.1792C26.9561 16.7364 27.5162 17.3648 28 18.0644L18.2231 30.0556ZM20.8965 19.1139C20.6546 19.0232 20.4127 18.9649 20.1709 18.939C19.9417 18.913 19.6998 18.9001 19.4452 18.9001C18.7323 18.9001 18.0576 19.0361 17.4211 19.3082C16.7973 19.5673 16.2499 19.9431 15.7789 20.4354C15.3206 20.9278 14.9578 21.5238 14.6905 22.2234C14.4231 22.9101 14.2894 23.6875 14.2894 24.5556C14.2894 24.7499 14.2958 24.9702 14.3085 25.2163C14.334 25.4625 14.3658 25.7152 14.404 25.9743C14.4549 26.2205 14.5122 26.4602 14.5759 26.6934C14.6395 26.9266 14.7223 27.1339 14.8241 27.3153L20.8965 19.1139ZM86.0453 43.6982H80.1801V11.5361H86.0453V21.6982C86.7471 21.1683 87.4704 20.7959 88.2152 20.5811C88.96 20.3519 89.7191 20.2373 90.4926 20.2373C91.9106 20.2373 93.2426 20.5094 94.4887 21.0537C95.7348 21.5837 96.8161 22.3213 97.7328 23.2666C98.6638 24.1976 99.3943 25.2933 99.9242 26.5537C100.468 27.7998 100.741 29.1318 100.741 30.5498V43.6982H94.8324V30.5498H94.8754C94.8754 29.9482 94.7608 29.3825 94.5316 28.8525C94.3025 28.3083 93.9874 27.8356 93.5863 27.4346C93.1853 27.0335 92.7198 26.7184 92.1898 26.4893C91.6599 26.2601 91.0941 26.1455 90.4926 26.1455C89.8767 26.1455 89.2966 26.2601 88.7523 26.4893C88.2081 26.7184 87.7354 27.0335 87.3344 27.4346C86.9333 27.8356 86.6182 28.3083 86.3891 28.8525C86.1599 29.3825 86.0453 29.9482 86.0453 30.5498V43.6982ZM53 22.1279C53 20.8532 53.2435 19.6572 53.7305 18.54C54.2174 17.4229 54.8763 16.4489 55.707 15.6182C56.5521 14.7731 57.5332 14.1071 58.6504 13.6201C59.7676 13.1331 60.9635 12.8896 62.2383 12.8896H76.375V19.0557H62.2383C61.8086 19.0557 61.4076 19.1344 61.0352 19.292C60.6628 19.4495 60.3333 19.6715 60.0469 19.958C59.7747 20.2301 59.5599 20.5524 59.4023 20.9248C59.2448 21.2972 59.166 21.6982 59.166 22.1279C59.166 22.5576 59.2448 22.9658 59.4023 23.3525C59.5599 23.7249 59.7747 24.0544 60.0469 24.3408C60.3333 24.613 60.6628 24.8278 61.0352 24.9854C61.4076 25.1429 61.8086 25.2217 62.2383 25.2217H68.4043C69.679 25.2217 70.875 25.4652 71.9922 25.9521C73.1237 26.4248 74.1048 27.0837 74.9355 27.9287C75.7806 28.7594 76.4395 29.7406 76.9121 30.8721C77.3991 31.9893 77.6426 33.1852 77.6426 34.46C77.6426 35.7347 77.3991 36.9307 76.9121 38.0479C76.4395 39.165 75.7806 40.1462 74.9355 40.9912C74.1048 41.8219 73.1237 42.4808 71.9922 42.9678C70.875 43.4548 69.679 43.6982 68.4043 43.6982H54.7188V37.5322H68.4043C68.834 37.5322 69.235 37.4535 69.6074 37.2959C69.9798 37.1383 70.3021 36.9235 70.5742 36.6514C70.8607 36.3649 71.0827 36.0355 71.2402 35.6631C71.3978 35.2907 71.4766 34.8896 71.4766 34.46C71.4766 34.0303 71.3978 33.6292 71.2402 33.2568C71.0827 32.8844 70.8607 32.5622 70.5742 32.29C70.3021 32.0036 69.9798 31.7816 69.6074 31.624C69.235 31.4665 68.834 31.3877 68.4043 31.3877H62.2383C60.9635 31.3877 59.7676 31.1442 58.6504 30.6572C57.5332 30.1702 56.5521 29.5114 55.707 28.6807C54.8763 27.8356 54.2174 26.8545 53.7305 25.7373C53.2435 24.6058 53 23.4027 53 22.1279ZM125.343 36.8018C125.958 35.3122 126.266 33.708 126.266 31.9893C126.266 30.1559 125.958 28.4945 125.343 27.0049C124.727 25.501 123.889 24.2191 122.829 23.1592C121.769 22.085 120.523 21.2614 119.091 20.6885C117.673 20.1012 116.147 19.8076 114.514 19.8076C112.896 19.8076 111.371 20.1156 109.938 20.7314C108.52 21.3473 107.274 22.1995 106.2 23.2881C105.14 24.3623 104.302 25.6442 103.686 27.1338C103.07 28.6234 102.762 30.2419 102.762 31.9893C102.762 33.708 103.07 35.3122 103.686 36.8018C104.302 38.277 105.14 39.5589 106.2 40.6475C107.274 41.7217 108.52 42.5739 109.938 43.2041C111.371 43.82 112.896 44.1279 114.514 44.1279C116.147 44.1279 117.673 43.82 119.091 43.2041C120.523 42.5739 121.769 41.7217 122.829 40.6475C123.889 39.5589 124.727 38.277 125.343 36.8018ZM119.886 29.4326C120.201 30.1917 120.358 31.0439 120.358 31.9893C120.358 32.9202 120.201 33.7725 119.886 34.5459C119.585 35.3193 119.169 35.9782 118.639 36.5225C118.11 37.0667 117.486 37.4893 116.77 37.79C116.068 38.0908 115.317 38.2412 114.514 38.2412C113.712 38.2412 112.953 38.0837 112.237 37.7686C111.535 37.4391 110.919 36.9951 110.389 36.4365C109.874 35.8779 109.466 35.2191 109.165 34.46C108.864 33.7008 108.714 32.8773 108.714 31.9893C108.714 31.0439 108.864 30.1917 109.165 29.4326C109.466 28.6592 109.874 28.0003 110.389 27.4561C110.919 26.8975 111.535 26.4749 112.237 26.1885C112.953 25.8877 113.712 25.7373 114.514 25.7373C115.317 25.7373 116.068 25.8877 116.77 26.1885C117.486 26.4749 118.11 26.8975 118.639 27.4561C119.169 28.0003 119.585 28.6592 119.886 29.4326ZM134.519 52.4639H128.611V20.6885H130.029L132.37 23.46C132.9 22.9587 133.48 22.486 134.111 22.042C134.741 21.598 135.392 21.2184 136.066 20.9033C136.753 20.5739 137.462 20.3161 138.193 20.1299C138.923 19.9437 139.661 19.8506 140.405 19.8506C142.024 19.8506 143.542 20.1442 144.96 20.7314C146.392 21.3044 147.639 22.1208 148.698 23.1807C149.773 24.2406 150.618 25.5225 151.234 27.0264C151.849 28.516 152.157 30.1702 152.157 31.9893C152.157 33.8799 151.849 35.5843 151.234 37.1025C150.618 38.6064 149.773 39.8883 148.698 40.9482C147.639 41.9938 146.392 42.7959 144.96 43.3545C143.542 43.9131 142.024 44.1924 140.405 44.1924C139.89 44.1924 139.374 44.1351 138.859 44.0205C138.357 43.9059 137.856 43.7555 137.355 43.5693C136.868 43.3688 136.381 43.1468 135.894 42.9033C135.421 42.6598 134.963 42.4092 134.519 42.1514V52.4639ZM146.271 31.9893C146.271 31.0153 146.113 30.1416 145.798 29.3682C145.497 28.5947 145.082 27.943 144.552 27.4131C144.022 26.8688 143.399 26.4535 142.683 26.167C141.967 25.8805 141.208 25.7373 140.405 25.7373C139.603 25.7373 138.844 25.8805 138.128 26.167C137.426 26.4535 136.81 26.8688 136.28 27.4131C135.751 27.943 135.328 28.5947 135.013 29.3682C134.712 30.1416 134.562 31.0153 134.562 31.9893C134.562 32.9202 134.712 33.7725 135.013 34.5459C135.328 35.3193 135.751 35.9782 136.28 36.5225C136.81 37.0667 137.426 37.4893 138.128 37.79C138.844 38.0908 139.603 38.2412 140.405 38.2412C141.208 38.2412 141.967 38.0908 142.683 37.79C143.399 37.4893 144.022 37.0667 144.552 36.5225C145.082 35.9782 145.497 35.3193 145.798 34.5459C146.113 33.7725 146.271 32.9202 146.271 31.9893ZM33.0503 40.6168C33.0503 38.9161 34.4291 37.5374 36.1298 37.5374H47.5503V43.6963H36.1298C34.4291 43.6963 33.0503 42.3176 33.0503 40.6168Z" fill="#0078D4"/>
</svg>
