<svg width="19" height="16" viewBox="0 0 19 16" fill="#1D252C" xmlns="http://www.w3.org/2000/svg">
<path d="M7.75 13.8125C7.75 14.9516 6.8266 15.875 5.6875 15.875C4.5484 15.875 3.625 14.9516 3.625 13.8125C3.625 12.6734 4.5484 11.75 5.6875 11.75C6.8266 11.75 7.75 12.6734 7.75 13.8125Z" fill="1D252C"/>
<path d="M13.9375 11.75C12.7984 11.75 11.875 12.6734 11.875 13.8125C11.875 14.9516 12.7984 15.875 13.9375 15.875C15.0766 15.875 16 14.9516 16 13.8125C16 12.6734 15.0766 11.75 13.9375 11.75Z" fill="1D252C"/>
<path d="M5 0.75H0.875V2.125H3.625V10.375H16V9H5V0.75Z" fill="1D252C"/>
<path d="M6.375 7.625H17.375V6.25H6.375V7.625Z" fill="1D252C"/>
<path d="M6.375 3.5V4.875H18.75V3.5H6.375Z" fill="1D252C"/>
</svg>