<svg width="22" height="16" viewBox="0 0 22 16" fill="none" xmlns="http://www.w3.org/2000/svg">
<path d="M20.4554 1.61914C21.0851 2.2663 21.2903 3.73597 21.2903 3.73597C21.2903 3.73597 21.5 5.46181 21.5 7.18766V8.80564C21.5 10.5314 21.2903 12.2573 21.2903 12.2573C21.2903 12.2573 21.0851 13.727 20.4554 14.3742C19.7355 15.1399 18.9372 15.2188 18.4861 15.2633C18.4369 15.2682 18.3917 15.2726 18.3513 15.2775C15.4127 15.4932 11 15.5 11 15.5C11 15.5 5.54009 15.4494 3.86005 15.2858C3.78015 15.2706 3.68324 15.2588 3.57348 15.2454C3.04123 15.1803 2.20679 15.0784 1.54452 14.3742C0.914891 13.727 0.71 12.2573 0.71 12.2573C0.71 12.2573 0.5 10.5315 0.5 8.80564V7.18766C0.5 5.46181 0.71 3.73592 0.71 3.73592C0.71 3.73592 0.914891 2.2663 1.54452 1.61909C2.26471 0.853303 3.06285 0.774477 3.51385 0.729935C3.56311 0.725071 3.60822 0.720615 3.64864 0.715719C6.58737 0.5 10.9954 0.5 10.9954 0.5H11.0045C11.0045 0.5 15.4127 0.5 18.3513 0.715766C18.3917 0.720664 18.4369 0.72512 18.4861 0.729986C18.9372 0.774529 19.7355 0.853373 20.4554 1.61914ZM14.75 8L8 4.25L8.00103 11.75L14.75 8Z" fill="white"/>
</svg>
